<svg width="12" height="22" viewBox="0 0 12 22" fill="none" xmlns="http://www.w3.org/2000/svg">
<path d="M1.33334 21.3333C1.20041 21.3326 1.06896 21.3054 0.946669 21.2533C0.76425 21.1788 0.608338 21.0513 0.499023 20.8873C0.389709 20.7234 0.332001 20.5304 0.333336 20.3333V1.66667C0.340559 1.47692 0.40166 1.29315 0.509491 1.13685C0.617323 0.980544 0.767428 0.858176 0.942252 0.784051C1.11708 0.709925 1.30939 0.687108 1.4967 0.718267C1.68402 0.749427 1.85859 0.833274 2 0.960004L11.3333 10.2933C11.5206 10.4808 11.6258 10.735 11.6258 11C11.6258 11.265 11.5206 11.5192 11.3333 11.7067L2 21.04C1.8211 21.216 1.58394 21.3203 1.33334 21.3333ZM2.33334 4.08V17.92L9.25334 11L2.33334 4.08Z" fill="black"/>
</svg>
